<svg width="60" height="60" viewBox="0 0 60 60" fill="none" xmlns="http://www.w3.org/2000/svg">
<path d="M47.5 30C47.5 25.125 45.8017 20.9892 42.405 17.5925C39.01 14.1975 34.875 12.5 30 12.5V7.5C33.125 7.5 36.0525 8.09333 38.7825 9.28C41.5108 10.4683 43.8858 12.0725 45.9075 14.0925C47.9275 16.1142 49.5317 18.4892 50.72 21.2175C51.9067 23.9475 52.5 26.875 52.5 30H47.5ZM37.5 30C37.5 27.9167 36.7708 26.1458 35.3125 24.6875C33.8542 23.2292 32.0833 22.5 30 22.5V17.5C33.4583 17.5 36.4067 18.7183 38.845 21.155C41.2817 23.5933 42.5 26.5417 42.5 30H37.5ZM49.875 52.5C44.5 52.5 39.2608 51.3017 34.1575 48.905C29.0525 46.51 24.5317 43.3433 20.595 39.405C16.6567 35.4683 13.49 30.9475 11.095 25.8425C8.69833 20.7392 7.5 15.5 7.5 10.125C7.5 9.375 7.75 8.75 8.25 8.25C8.75 7.75 9.375 7.5 10.125 7.5H20.25C20.8333 7.5 21.3542 7.6875 21.8125 8.0625C22.2708 8.4375 22.5417 8.91667 22.625 9.5L24.25 18.25C24.3333 18.8333 24.3233 19.3642 24.22 19.8425C24.115 20.3225 23.875 20.75 23.5 21.125L17.4375 27.25C19.1875 30.25 21.3858 33.0625 24.0325 35.6875C26.6775 38.3125 29.5833 40.5833 32.75 42.5L38.625 36.625C39 36.25 39.49 35.9683 40.095 35.78C40.6983 35.5933 41.2917 35.5417 41.875 35.625L50.5 37.375C51.0833 37.5 51.5625 37.7808 51.9375 38.2175C52.3125 38.6558 52.5 39.1667 52.5 39.75V49.875C52.5 50.625 52.25 51.25 51.75 51.75C51.25 52.25 50.625 52.5 49.875 52.5ZM15.0625 22.5L19.1875 18.375L18.125 12.5H12.5625C12.7708 14.2083 13.0625 15.8958 13.4375 17.5625C13.8125 19.2292 14.3542 20.875 15.0625 22.5ZM37.4375 44.875C39.0625 45.5833 40.7192 46.1458 42.4075 46.5625C44.0942 46.9792 45.7917 47.25 47.5 47.375V41.875L41.625 40.6875L37.4375 44.875Z" fill="#888888"/>
</svg>
