<svg xmlns="http://www.w3.org/2000/svg" enable-background="new 0 0 1400 1080" viewBox="0 0 1400 1080"><path fill="#d3d3d3" d="M957.168,974.386c7.069-3.206-171.91-274.244,0-395.02c14.195-9.973,176.25,72.301,206.167,19.945
		c29.918-52.356,189.479-75.636,162.055-121.339c-27.425-45.702,57.342-282.552-124.657-260.113S1108.486,0.956,936.459,53.312
		S604.87-11.51,579.939,138.079c-24.931,149.589-138.871-34.799-226.72,37.397s-39.341,104.712-23.489,132.137
		c15.853,27.425,112.378,80.945,54.105,125.458s87.932,102.806,154.484,18.592c0,0,272.517,362.059,0,484.223
		C538.319,935.886,613.878,1130.064,957.168,974.386z"/><ellipse cx="168.359" cy="1068.486" fill="#2a94f4" opacity=".13" rx="96.904" ry="11.514"/><ellipse cx="418.763" cy="1047.857" fill="#2a94f4" opacity=".13" rx="60.702" ry="7.212"/><circle cx="558.411" cy="233.568" r="155.006" fill="#f2f2f2"/><circle cx="491.585" cy="322.967" r="155.006" fill="#f2f2f2"/><circle cx="1069.995" cy="233.568" r="155.006" fill="#f2f2f2"/><circle cx="1154.762" cy="371.471" r="155.006" fill="#f2f2f2"/><circle cx="680.969" cy="127.066" r="89.399" fill="#f2f2f2"/><circle cx="951.891" cy="127.066" r="89.399" fill="#f2f2f2"/><circle cx="713.418" cy="355.36" r="89.399" fill="#f2f2f2"/><circle cx="754.541" cy="233.568" r="89.399" fill="#f2f2f2"/><circle cx="894.564" cy="386.454" r="140.023" fill="#f2f2f2"/><circle cx="846.36" cy="154.382" r="140.023" fill="#f2f2f2"/><circle cx="643.826" cy="455.744" r="140.023" fill="#f2f2f2"/><circle cx="843.94" cy="495.383" r="140.023" fill="#f2f2f2"/><circle cx="1056.727" cy="468.392" r="219.841" fill="#f2f2f2"/><circle cx="1022.658" cy="419.819" r="219.841" fill="#f7f7f7"/><circle cx="850.154" cy="331.736" r="219.841" fill="#f7f7f7"/><circle cx="680.969" cy="376.17" r="167.961" fill="#f7f7f7"/><circle cx="503.803" cy="943.825" r="53.268" fill="#f2f2f2"/><circle cx="566.193" cy="978.57" r="53.268" fill="#f2f2f2"/><circle cx="594.795" cy="245.326" r="167.961" fill="#f7f7f7"/><circle cx="783.931" cy="167.961" r="167.961" fill="#f7f7f7"/><circle cx="1022.658" cy="216.465" r="99.338" fill="#f7f7f7"/><circle cx="1191.591" cy="371.471" r="99.338" fill="#f7f7f7"/><path fill="#f2f2f2" d="M691.646,639.66c0,0,43.928,80.776,21.772,243.039s-57.022,141.278-57.022,141.278
		s167.865,34.894,206.097-19.95c0,0-79.465-252.634-59.676-322.442C802.816,681.585,762.327,753.372,691.646,639.66z"/><path fill="#f2f2f2" d="M875.792 664.964c0 0-13.3 141.278 91.415 304.164 0 0-87.681 50.061-130.323 54.221s-28.86-175.537-35.508-281.911C801.377 741.439 869.144 856.106 875.792 664.964zM653.302 696.899c0 0 40.581 163.311-114.984 238.987-28.188 13.712-25.31 51.11-25.31 51.11s126.995 57.01 176.442 42.467c49.447-14.543 50.803-136.76 37.584-224.712 0 0-15.07 45.444-23.117 6.639-8.047-38.805-20.513-15.61-27.992-6.639C668.446 813.722 679.296 722.186 653.302 696.899z"/><path fill="#f7f7f7" d="M789.363,1015.667c0,0-21.641-296.443,21.192-376.007c0,0-24.932,312.838,0,364.368
		C835.487,1055.557,770.591,1033.613,789.363,1015.667z"/><path fill="#0e538c" d="M319.269 715.528c0 0 .789-6.962-4.891-17.044 0 0 6.837.167 12.154 1.507 5.318 1.34-.662-7.927 8.353-9.327 9.015-1.4 31.587 24.948 31.961 12.608 0 0 14.712 14.809 5.458 23.967s-16.686 27.949-37.52 23.115C313.952 745.519 319.269 715.528 319.269 715.528zM386.157 966.98l6.046-.419 12.904 1.29 13.657 24.267c-6.259 5.217-10.083 7.604-16.285-6.726-6.359-14.693-15.543-6.542-15.543-6.542L386.157 966.98zM173.18 1056.973c0 0-33.636-.633-34.146-1.465s5.489-14.132 15.503-11.636 8.844-12.745 8.844-12.745l14.197 1.441c.107.317 2.304 11.287 1.895 16.769l1.113 6.841L173.18 1056.973z"/><path fill="#ffe3ca" d="M277.33,742.395c0,0-11.242-107.72-7.265-110.956c3.977-3.236,6.617-21.601-0.798-14.466
				c-11.683,11.243-28.765,58.876-6.52,126.512S277.33,742.395,277.33,742.395z"/><path fill="#ffe3ca" d="M261.637 629.193c0 0 1.609-30.983 7.412-35.877s7.793 10.221 7.793 10.221-3.288 7.539-3.213 12.89c.076 5.351-.177.708-.177.708s2.398 1.199 5.923-6.802c2.028-4.603 5.097-2.076 4.145-.376-.952 1.7-1.95 4.702-2.048 8.425s-8.531 9.785-12.725 12.583c-4.194 2.799-6.277-1.565-6.277-1.565M369.336 776.5c0 0 96.748-48.681 97.325-53.776.577-5.095 14.612-17.23 12.608-7.137-3.158 15.904-34.035 55.995-102.98 73.777S369.336 776.5 369.336 776.5z"/><path fill="#ffe3ca" d="M473.101,728.606c0,0,25.213-18.078,26.201-25.606c0.988-7.527-12.81-1.043-12.81-1.043
				s-4.572,6.838-9.117,9.662c-4.545,2.825-0.501,0.531-0.501,0.531s-2.303-1.371,2.529-8.658c2.78-4.191-1.003-5.411-1.921-3.692
				s-2.906,4.18-5.986,6.272c-3.08,2.092-3.632,12.463-3.724,17.505c-0.092,5.041,4.705,4.44,4.705,4.44"/><path fill="#2a94f4" d="M297.413 759.75c0 0-18.789-18.598-21.579-35.191l-21.3 8.062c0 0 12.403 47.116 27.369 48.491C296.869 782.487 297.413 759.75 297.413 759.75zM334.464 771.447c0 0 25.99 4.842 41.215-2.32l5.512 22.097c0 0-35.444 17.005-45.102 5.49C326.431 785.2 334.464 771.447 334.464 771.447z"/><path fill="#0b4870" d="M216.153,886.613c0,0-27.508,22.735-42.913,43.555c-15.405,20.82-11.379,104.921-11.379,104.921
			l17.634,1.254c0,0,11.876-82.149,14.773-89.53c2.896-7.38,45.32-21.27,63.522-32.209c7.872-4.731,24.628,7.195,24.628,7.195
			S298.875,864.252,216.153,886.613z"/><path fill="#0b4870" d="M256.75,901.565c0,0,24.144,91.366,37.83,100.061c13.685,8.695,95.269-22.58,95.269-22.58
			l3.426-13.747c0,0-62.852-11.07-83.635,8.058l7.999-69.906C317.639,903.452,267.235,873.53,256.75,901.565z"/><path fill="#2a94f4" d="M294.069,756.299c-17.322,5.491-32.362,79.957-55.718,100.619
			c-9.942,8.795-22.197,29.695-22.197,29.695s84.423,37.246,101.486,16.839c0,0,54.387-115.535,5.422-143.174
			C312.518,754.327,302.941,753.486,294.069,756.299z"/><path fill="#fcd2b1" d="M318.108,737.527c0,0-1.057,14.66-13.067,19.62s10.553,24.75,23.321,14.019
			c0,0-3.1-11.533,9.268-32.232C337.632,738.935,326.445,726.477,318.108,737.527z"/><path fill="#ffe3ca" d="M352.458,735.22c1.471,0.869,10.135-2.486,9.694,3.802c-0.441,6.287-10.096,8.287-12.049,5.399
			c0,0-20.727,8.842-33.117-0.5s17.813-48.009,20.043-38.326c2.528,10.977,16.998,11.487,15.59,17.781
			C351.211,729.669,346.391,731.636,352.458,735.22z"/><circle cx="643.826" cy="989.789" r="53.268" fill="#f2f2f2"/><circle cx="713.418" cy="989.789" r="53.268" fill="#f2f2f2"/><circle cx="799.431" cy="992.282" r="53.268" fill="#f2f2f2"/><circle cx="879.212" cy="978.57" r="53.268" fill="#f2f2f2"/><circle cx="951.891" cy="962.854" r="53.268" fill="#f2f2f2"/><circle cx="994.275" cy="943.825" r="53.268" fill="#f2f2f2"/><circle cx="932.48" cy="939.014" r="75.167" fill="#f2f2f2"/><circle cx="575.636" cy="936.521" r="62.71" fill="#f2f2f2"/><circle cx="544.852" cy="962.854" r="53.268" fill="#f2f2f2"/><path fill="#ffbe55" d="M910.851 875.949c-.988-1.084 43.889-84.189 43.889-84.189l-15.317 84.189 70.767-35.961-28.383 52.707-109.982 53.268L910.851 875.949zM612.264 880.898c.988-1.084-43.889-84.189-43.889-84.189l15.317 84.189-70.767-35.961 28.383 52.707 109.982 53.268L612.264 880.898z"/><circle cx="969.39" cy="945.963" r="53.268" fill="#f7f7f7"/><path fill="#ffbe55" d="M638.346,925.302c9.739-1.05,75.071-156.143,75.071-156.143l-32.448,151.836l25.368,61.778
		l39.826-12.62l4.786-281.919l32.9,290.336h73.464c0,0-46.479-204.904-4.614-328.498c0,0-42.06,291.78,41.865,320.081
		c0,0-183.12,58.229-233.914,26.94C609.857,965.804,638.346,925.302,638.346,925.302z"/><ellipse cx="759.444" cy="978.57" fill="#f7f7f7" rx="74.995" ry="53.268"/><ellipse cx="825.944" cy="982.773" fill="#f7f7f7" rx="74.995" ry="53.268"/><circle cx="898.623" cy="960.914" r="53.268" fill="#f7f7f7"/><circle cx="557.071" cy="945.963" r="53.268" fill="#f7f7f7"/><ellipse cx="652.04" cy="970.153" fill="#f7f7f7" rx="74.995" ry="53.268"/></svg>