<svg width="60" height="60" viewBox="0 0 60 60" fill="none" xmlns="http://www.w3.org/2000/svg">
<path d="M56.25 28.125H31.875V3.75H28.125V28.125H3.75V31.875H28.125V56.25H31.875V31.875H56.25V28.125Z" fill="#888888"/>
<path d="M47.9738 37.5L50.625 40.1513L43.9013 46.875L50.625 53.5988L47.9738 56.25L38.5988 46.875L47.9738 37.5ZM20.625 56.25H5.625C5.30552 56.2498 4.99138 56.168 4.71239 56.0124C4.4334 55.8567 4.19881 55.6323 4.03089 55.3605C3.86297 55.0887 3.76728 54.7785 3.7529 54.4594C3.73853 54.1402 3.80594 53.8227 3.94875 53.5369L11.4488 38.5369C11.6218 38.2463 11.8673 38.0056 12.1613 37.8385C12.4553 37.6713 12.7877 37.5834 13.1259 37.5834C13.4641 37.5834 13.7966 37.6713 14.0906 37.8385C14.3846 38.0056 14.6301 38.2463 14.8031 38.5369L22.3031 53.5369C22.446 53.8228 22.5134 54.1405 22.499 54.4598C22.4845 54.7792 22.3886 55.0895 22.2205 55.3613C22.0524 55.6332 21.8175 55.8575 21.5383 56.013C21.259 56.1686 20.9446 56.2502 20.625 56.25ZM8.65875 52.5H17.5913L13.125 43.5675L8.65875 52.5ZM52.5 22.5H41.25C40.2557 22.499 39.3025 22.1036 38.5994 21.4006C37.8964 20.6975 37.501 19.7443 37.5 18.75V7.5C37.501 6.50575 37.8964 5.5525 38.5994 4.84945C39.3025 4.1464 40.2557 3.751 41.25 3.75H52.5C53.4943 3.751 54.4475 4.1464 55.1506 4.84945C55.8536 5.5525 56.249 6.50575 56.25 7.5V18.75C56.249 19.7443 55.8536 20.6975 55.1506 21.4006C54.4475 22.1036 53.4943 22.499 52.5 22.5ZM41.25 7.5V18.75H52.5019L52.5 7.5H41.25ZM13.125 22.5C11.2708 22.5 9.45824 21.9502 7.91653 20.92C6.37482 19.8899 5.17321 18.4257 4.46363 16.7127C3.75406 14.9996 3.56841 13.1146 3.93014 11.296C4.29188 9.47746 5.18476 7.807 6.49588 6.49588C7.807 5.18476 9.47746 4.29188 11.296 3.93014C13.1146 3.56841 14.9996 3.75406 16.7127 4.46363C18.4257 5.17321 19.8899 6.37482 20.92 7.91653C21.9502 9.45824 22.5 11.2708 22.5 13.125C22.497 15.6105 21.5084 17.9933 19.7508 19.7508C17.9933 21.5084 15.6105 22.497 13.125 22.5ZM13.125 7.5C12.0125 7.5 10.9249 7.82991 9.99992 8.44799C9.07489 9.06607 8.35392 9.94458 7.92818 10.9724C7.50244 12.0002 7.39105 13.1312 7.60809 14.2224C7.82513 15.3135 8.36086 16.3158 9.14753 17.1025C9.9342 17.8892 10.9365 18.4249 12.0276 18.6419C13.1188 18.859 14.2498 18.7476 15.2776 18.3218C16.3054 17.8961 17.1839 17.1751 17.802 16.2501C18.4201 15.3251 18.75 14.2375 18.75 13.125C18.7485 11.6336 18.1554 10.2037 17.1008 9.14917C16.0463 8.0946 14.6164 7.50149 13.125 7.5Z" fill="#888888"/>
</svg>
