<svg width="56" height="56" viewBox="0 0 56 56" fill="none" xmlns="http://www.w3.org/2000/svg">
    <path d="M25.8874 0.285767L24.1038 4.35803C23.1806 4.41437 22.262 4.53063 21.3538 4.70608L18.6254 1.18295L15.6847 2.1828L15.6701 6.66522C14.4244 7.30553 13.2306 8.07967 12.1029 8.98319L7.94684 7.11194L5.81906 9.37518L7.94672 13.4108C7.26791 14.3785 6.67137 15.4013 6.16336 16.4687L1.60031 16.5931L0.673828 19.5556L4.35797 22.2694C4.1816 23.3687 4.09547 24.4794 4.09055 25.591L0 27.6637L0.428438 30.7399L4.91824 31.6188C5.18664 32.5585 5.51946 33.4787 5.91434 34.3727L2.95547 38.0459L4.60699 40.6751L9.2066 39.5985C9.49766 39.941 9.79929 40.2744 10.1111 40.5981C10.7622 41.2717 11.4558 41.9029 12.1876 42.4878L11.2941 47.0948L13.9821 48.6475L17.494 45.5896C18.4989 45.9935 19.5335 46.3192 20.5886 46.5637L21.7349 51.0644L24.8292 51.3172L26.6896 47.0726C27.9751 46.9953 29.2565 46.8031 30.5165 46.494L33.4719 49.9182L36.3539 48.7646L36.2695 47.0287L29.5423 41.9275C27.5838 42.4226 25.553 42.5552 23.5583 42.3302C19.8372 41.9106 16.2611 40.2302 13.4547 37.3279C7.04004 30.6935 7.22344 20.14 13.8575 13.7256C17.0708 10.6187 21.204 9.04249 25.3419 8.99784C29.747 8.95026 34.1561 10.638 37.4636 14.0588C42.8466 19.6266 43.5803 28.0024 39.756 34.3434L43.5025 37.1852C43.9683 36.4547 44.389 35.6965 44.7622 34.9147L49.2921 34.7901L50.2186 31.8276L46.5604 29.1323C46.7368 28.024 46.8261 26.9036 46.8275 25.7814L50.8925 23.716L50.4642 20.6398L45.9783 19.7609C45.6008 18.4615 45.1005 17.2009 44.4841 15.9963L47.1572 12.2939L45.3701 9.75592L40.9685 11.034C40.9132 10.9754 40.8595 10.916 40.8035 10.8582C40.1107 10.1413 39.3692 9.47318 38.5843 8.8585L39.4267 4.50792L36.7383 2.9553L33.3984 5.86319C32.3173 5.42807 31.2068 5.0894 30.0805 4.8378L28.9856 0.538423L25.8874 0.285767ZM19.0723 18.274C17.8601 18.2879 16.6586 18.5855 15.5566 19.1272L20.8559 23.1483C22.4585 24.3643 22.9131 26.6751 21.6832 28.2972C20.453 29.9203 18.0907 30.1642 16.4648 28.931L11.1694 24.9135C10.6271 27.819 11.6539 30.8975 14.1687 32.8054C16.4239 34.516 19.3184 34.8363 21.8116 33.9407L22.3718 33.7392L22.8441 34.0981L38.6866 46.1173L39.1589 46.4762L39.1186 47.0695C38.9268 49.7121 40.0081 52.4144 42.2644 54.1262C44.7792 56.034 48.0236 56.1922 50.6761 54.8879L45.3809 50.8707C43.755 49.6372 43.3556 47.2958 44.5863 45.6741C45.8168 44.0522 48.1649 43.8689 49.768 45.0844L55.0635 49.102C55.6044 46.1976 54.5818 43.1176 52.0678 41.2101C49.8046 39.4924 46.933 39.1521 44.4544 40.0344L43.8977 40.2322L43.4255 39.8732L27.5829 27.8542L27.1106 27.4953L27.1509 26.9058C27.3326 24.2824 26.231 21.6097 23.9685 19.8928C22.4985 18.7776 20.7784 18.2547 19.0724 18.2742L19.0723 18.274ZM24.1773 28.8502L43.3814 43.4218L42.0593 45.1686L22.8516 30.5934L24.1773 28.8502Z" fill="#888888"/>
</svg>
